<svg width="58" height="56" viewBox="0 0 58 56" fill="none" xmlns="http://www.w3.org/2000/svg">
<path d="M14.7561 14.1297H43.4339V41.8704H14.7561V14.1297Z" fill="#2E001E"/>
<path d="M13.4526 12.8333V43.1666H44.7375V12.8333H13.4526ZM14.7561 14.1296H43.4339V41.8703H14.7561V14.1296Z" fill="#FF2BC2"/>
<path d="M36.1732 25.5759C35.9777 25.4852 35.73 25.4463 35.4172 25.4463C33.7747 25.4463 32.6798 26.7037 32.6798 28.7907C32.6798 31.1759 33.8008 32.1351 35.2608 32.1351C35.5736 32.1351 35.9125 32.0963 36.1602 31.9926V25.5759H36.1732ZM30.3334 28.8944C30.3334 25.8741 32.2887 23.5148 35.4954 23.5148C35.7691 23.5148 35.9125 23.5148 36.1732 23.5407V20.1704C36.1732 20.0926 36.2384 20.0407 36.3036 20.0407H38.4023C38.5066 20.0407 38.5326 20.0796 38.5326 20.1444V31.9926C38.5326 32.3426 38.5326 32.7833 38.5978 33.2629C38.5978 33.3537 38.5978 33.3666 38.5196 33.4055C37.4246 33.924 36.2775 34.1574 35.1825 34.1574C32.3539 34.1574 30.3334 32.4203 30.3334 28.8944ZM25.8883 26.7944L29.5382 33.8333C29.6034 33.937 29.5643 34.0407 29.46 34.0407H27.1919C27.0485 34.0407 26.9833 34.0018 26.9181 33.8722C26.0839 32.1611 25.2366 30.3852 24.3632 28.5444H24.3371C23.555 30.2814 22.6947 32.174 21.8604 33.8851C21.7952 33.9888 21.73 34.0277 21.6258 34.0277H19.4619C19.3315 34.0277 19.3185 33.924 19.3837 33.8463L22.9554 27.0148L19.501 20.2222C19.4228 20.1185 19.501 20.0278 19.5922 20.0278H21.8343C21.9647 20.0278 22.0299 20.0537 22.069 20.1704C22.8902 21.8944 23.7245 23.5926 24.5066 25.3296H24.5326C25.2887 23.6185 26.123 21.8944 26.9181 20.1963C26.9833 20.0926 27.0224 20.0278 27.1528 20.0278H29.2515C29.3557 20.0278 29.3948 20.1055 29.3297 20.2222L25.8883 26.7944Z" fill="#FF2BC2"/>
</svg>