<svg width="57" height="56" viewBox="0 0 57 56" fill="none" xmlns="http://www.w3.org/2000/svg">
<path d="M13.8174 14.1296H42.4953V41.8704H13.8174V14.1296Z" fill="url(#paint0_radial_1_5772)"/>
<path d="M13.8174 14.1296H42.4954V41.8704H13.8174V14.1296ZM12.5139 43.1667H43.7989V12.8333H12.5139V43.1667ZM32.3017 25.4333C32.1061 25.3426 31.8454 25.3037 31.5325 25.3037C29.851 25.3037 28.6778 26.587 28.6778 28.7259C28.6778 31.1629 29.8771 32.1481 31.3762 32.1481C31.702 32.1481 32.041 32.1092 32.3017 31.9926V25.4333ZM31.6107 23.3203C31.8845 23.3203 32.041 23.3203 32.3016 23.3463V19.8981C32.3016 19.8074 32.3668 19.7685 32.4319 19.7685H34.5437C34.648 19.7685 34.674 19.8074 34.674 19.8722V31.9926C34.674 32.3555 34.674 32.8093 34.7392 33.3019C34.7392 33.3926 34.7131 33.4055 34.6219 33.4574C33.5008 33.9889 32.3147 34.2223 31.2066 34.2223C28.3258 34.2223 26.2662 32.4464 26.2662 28.8297C26.2532 25.7315 28.3128 23.3203 31.6107 23.3203ZM23.959 33.8593C23.959 33.9889 23.933 34.0278 23.7896 34.0278H21.7821C21.6518 34.0278 21.6126 33.963 21.6126 33.8593V19.937C21.6126 19.8074 21.6778 19.7684 21.7821 19.7684H23.8026C23.9069 19.7684 23.959 19.8073 23.959 19.924V33.8593Z" fill="#FF408C"/>
<defs>
<radialGradient id="paint0_radial_1_5772" cx="0" cy="0" r="1" gradientUnits="userSpaceOnUse" gradientTransform="translate(23.2625 20.3463) scale(21.7952 20.9845)">
<stop stop-color="#4B2B36" stop-opacity="0.98"/>
<stop offset="1" stop-color="#250012"/>
</radialGradient>
</defs>
</svg>