<svg width="56" height="56" viewBox="0 0 56 56" fill="none" xmlns="http://www.w3.org/2000/svg">
<path d="M21.6638 26.8236C21.5211 26.6372 21.3103 26.515 21.0776 26.4836C20.8449 26.4523 20.6093 26.5144 20.4223 26.6563C20.3123 26.7431 20.2236 26.8538 20.1629 26.9801L12.5405 42.2293C12.4325 42.4454 12.4148 42.6955 12.4912 42.9247C12.5676 43.1538 12.7318 43.3433 12.9479 43.4514C13.0742 43.5153 13.2138 43.5483 13.3553 43.5479H23.9752C24.1453 43.5522 24.313 43.5069 24.4577 43.4174C24.6024 43.3279 24.7179 43.1982 24.79 43.044C27.082 38.3098 25.6926 31.1119 21.6638 26.8236Z" fill="url(#paint0_linear_1_6086)"/>
<path d="M27.2665 12.9467C25.3663 15.8707 24.2589 19.2386 24.0529 22.7197C23.8469 26.2009 24.5494 29.6758 26.0915 32.8036L31.2117 43.044C31.2873 43.1953 31.4036 43.3226 31.5475 43.4116C31.6914 43.5006 31.8573 43.5478 32.0265 43.5479H42.6443C42.764 43.5481 42.8826 43.5248 42.9933 43.4791C43.104 43.4334 43.2046 43.3663 43.2893 43.2816C43.3739 43.1969 43.4411 43.0963 43.4867 42.9857C43.5324 42.875 43.5558 42.7563 43.5555 42.6366C43.5556 42.4954 43.5234 42.356 43.4612 42.2292L28.8167 12.9424C28.7472 12.7956 28.6374 12.6716 28.5002 12.5848C28.363 12.4979 28.204 12.4518 28.0416 12.4518C27.8792 12.4518 27.7201 12.4979 27.5829 12.5848C27.4457 12.6716 27.336 12.7956 27.2665 12.9424V12.9467Z" fill="#2684FF"/>
<defs>
<linearGradient id="paint0_linear_1_6086" x1="25.8599" y1="29.1543" x2="17.8108" y2="43.0955" gradientUnits="userSpaceOnUse">
<stop stop-color="#0052CC"/>
<stop offset="0.92" stop-color="#2684FF"/>
</linearGradient>
</defs>
</svg>