<svg width="57" height="56" viewBox="0 0 57 56" fill="none" xmlns="http://www.w3.org/2000/svg">
<path d="M21.8947 25.4546C21.8947 25.8374 21.9364 26.1478 22.0092 26.3755C22.0924 26.6031 22.1965 26.8515 22.3421 27.1205C22.3942 27.2033 22.415 27.286 22.415 27.3585C22.415 27.4619 22.3526 27.5654 22.2173 27.6689L21.5618 28.1035C21.4681 28.1656 21.3745 28.1966 21.2912 28.1966C21.1872 28.1966 21.0831 28.1449 20.9791 28.0517C20.8334 27.8965 20.7086 27.731 20.6045 27.5654C20.5005 27.3895 20.3964 27.1929 20.282 26.9549C19.4704 27.9069 18.4507 28.3828 17.2229 28.3828C16.3488 28.3828 15.6517 28.1345 15.1419 27.6378C14.632 27.1412 14.3719 26.479 14.3719 25.6512C14.3719 24.7717 14.684 24.0577 15.3187 23.5196C15.9535 22.9816 16.7963 22.7126 17.868 22.7126C18.2218 22.7126 18.5859 22.7436 18.9709 22.7953C19.3559 22.8471 19.7513 22.9299 20.1675 23.023V22.2676C20.1675 21.4812 20.001 20.9328 19.6785 20.6121C19.3455 20.2913 18.7836 20.1361 17.9824 20.1361C17.6183 20.1361 17.2437 20.1775 16.8587 20.2706C16.4737 20.3637 16.0991 20.4776 15.7349 20.6224C15.5685 20.6948 15.4436 20.7362 15.3708 20.7569C15.2979 20.7776 15.2459 20.788 15.2043 20.788C15.0586 20.788 14.9858 20.6845 14.9858 20.4672V19.9602C14.9858 19.7946 15.0066 19.6705 15.0586 19.598C15.1106 19.5256 15.2043 19.4532 15.35 19.3807C15.7141 19.1945 16.1511 19.0393 16.661 18.9151C17.1708 18.7806 17.7119 18.7185 18.2842 18.7185C19.5224 18.7185 20.4276 18.9979 21.0103 19.5567C21.5826 20.1154 21.8739 20.9639 21.8739 22.1021V25.4546H21.8947ZM17.6703 27.0274C18.0137 27.0274 18.3674 26.9653 18.742 26.8411C19.1166 26.7169 19.4495 26.4893 19.7305 26.1789C19.897 25.9823 20.0218 25.765 20.0843 25.5167C20.1467 25.2683 20.1883 24.9683 20.1883 24.6165V24.1819C19.8866 24.1094 19.564 24.0474 19.231 24.006C18.8981 23.9646 18.5755 23.9439 18.253 23.9439C17.5558 23.9439 17.046 24.0784 16.7026 24.3578C16.3593 24.6371 16.1928 25.0303 16.1928 25.5477C16.1928 26.034 16.3176 26.3962 16.5778 26.6445C16.8275 26.9032 17.1917 27.0274 17.6703 27.0274ZM26.0255 28.1449C25.8382 28.1449 25.7134 28.1138 25.6301 28.0414C25.5469 27.9793 25.4741 27.8344 25.4116 27.6378L22.9665 19.6394C22.904 19.4325 22.8728 19.298 22.8728 19.2255C22.8728 19.06 22.956 18.9669 23.1225 18.9669H24.1422C24.3399 18.9669 24.4752 18.9979 24.548 19.0703C24.6313 19.1324 24.6937 19.2773 24.7561 19.4739L26.5042 26.3237L28.1274 19.4739C28.1794 19.2669 28.2418 19.1324 28.325 19.0703C28.4083 19.0082 28.554 18.9669 28.7413 18.9669H29.5737C29.7713 18.9669 29.9066 18.9979 29.9899 19.0703C30.0731 19.1324 30.1459 19.2773 30.1876 19.4739L31.8315 26.4065L33.6316 19.4739C33.694 19.2669 33.7669 19.1324 33.8397 19.0703C33.923 19.0082 34.0582 18.9669 34.2455 18.9669H35.2132C35.3797 18.9669 35.4733 19.0496 35.4733 19.2255C35.4733 19.2773 35.4629 19.329 35.4525 19.3911C35.4421 19.4532 35.4213 19.536 35.3797 19.6498L32.8721 27.6482C32.8096 27.8551 32.7368 27.9897 32.6535 28.0517C32.5703 28.1138 32.435 28.1552 32.2582 28.1552H31.3633C31.1656 28.1552 31.0304 28.1242 30.9471 28.0517C30.8639 27.9793 30.791 27.8448 30.7494 27.6378L29.1366 20.9639L27.5343 27.6275C27.4822 27.8344 27.4198 27.969 27.3366 28.0414C27.2533 28.1138 27.1077 28.1449 26.9204 28.1449H26.0255ZM39.396 28.4242C38.855 28.4242 38.3139 28.3622 37.7936 28.238C37.2734 28.1138 36.8676 27.9793 36.5971 27.8241C36.4306 27.731 36.3161 27.6275 36.2745 27.5344C36.2329 27.4412 36.2121 27.3378 36.2121 27.2446V26.7169C36.2121 26.4996 36.2953 26.3962 36.4514 26.3962C36.5138 26.3962 36.5762 26.4065 36.6387 26.4272C36.7011 26.4479 36.7948 26.4893 36.8988 26.5307C37.2526 26.6859 37.6376 26.8101 38.0434 26.8928C38.4596 26.9756 38.8654 27.017 39.2816 27.017C39.9371 27.017 40.4469 26.9032 40.8007 26.6756C41.1545 26.4479 41.3418 26.1168 41.3418 25.6926C41.3418 25.4028 41.2481 25.1649 41.0608 24.9683C40.8735 24.7717 40.5198 24.5958 40.0099 24.4302L38.5012 23.9646C37.7416 23.7266 37.1797 23.3748 36.8364 22.9092C36.493 22.4539 36.3161 21.9469 36.3161 21.4088C36.3161 20.9742 36.4098 20.5914 36.5971 20.2603C36.7843 19.9292 37.0341 19.6394 37.3462 19.4118C37.6584 19.1738 38.0121 18.9979 38.4283 18.8737C38.8445 18.7496 39.2816 18.6978 39.7394 18.6978C39.9683 18.6978 40.2076 18.7082 40.4365 18.7392C40.6758 18.7703 40.8943 18.8116 41.1128 18.853C41.3209 18.9048 41.5186 18.9565 41.7059 19.0186C41.8932 19.0807 42.0389 19.1428 42.1429 19.2048C42.2886 19.2876 42.3927 19.3704 42.4551 19.4635C42.5175 19.5463 42.5487 19.6601 42.5487 19.805V20.2913C42.5487 20.5086 42.4655 20.6224 42.3094 20.6224C42.2262 20.6224 42.0909 20.581 41.914 20.4982C41.3209 20.2292 40.655 20.0947 39.9163 20.0947C39.3232 20.0947 38.855 20.1878 38.5324 20.3844C38.2098 20.581 38.0434 20.8811 38.0434 21.3053C38.0434 21.5951 38.1474 21.8434 38.3555 22.04C38.5636 22.2366 38.9486 22.4332 39.5001 22.6091L40.9776 23.0747C41.7267 23.3127 42.2678 23.6438 42.5904 24.068C42.9129 24.4923 43.069 24.9786 43.069 25.5167C43.069 25.9616 42.9753 26.3651 42.7985 26.7169C42.6112 27.0687 42.3615 27.3792 42.0389 27.6275C41.7163 27.8862 41.3314 28.0724 40.8839 28.2069C40.4157 28.3518 39.9267 28.4242 39.396 28.4242Z" fill="#252F3E"/>
<path fill-rule="evenodd" clip-rule="evenodd" d="M41.3625 33.453C37.9393 35.9674 32.9657 37.3022 28.6892 37.3022C22.6959 37.3022 17.2957 35.0982 13.2169 31.4353C12.8943 31.1455 13.1857 30.7523 13.5707 30.98C17.9824 33.5254 23.4242 35.0671 29.0534 35.0671C32.8512 35.0671 37.0236 34.2808 40.8631 32.6666C41.4354 32.4079 41.9244 33.0391 41.3625 33.453Z" fill="#FF9900"/>
<path fill-rule="evenodd" clip-rule="evenodd" d="M42.7881 31.8388C42.351 31.28 39.8955 31.5698 38.7821 31.7043C38.4492 31.7457 38.3972 31.4559 38.6989 31.2387C40.655 29.8728 43.8702 30.266 44.2447 30.7213C44.6193 31.1869 44.1407 34.3842 42.3094 35.9156C42.0285 36.1536 41.758 36.0294 41.8828 35.719C42.299 34.6946 43.2251 32.3872 42.7881 31.8388Z" fill="#FF9900"/>
</svg>