<svg width="57" height="56" viewBox="0 0 57 56" fill="none" xmlns="http://www.w3.org/2000/svg">
<path d="M13.7807 14.0123C13.6344 14.0104 13.4895 14.0404 13.3561 14.1001C13.2227 14.1599 13.1041 14.248 13.0085 14.3582C12.913 14.4684 12.8429 14.5981 12.8032 14.7381C12.7634 14.8781 12.7549 15.0251 12.7784 15.1687L17.0335 40.8563C17.0865 41.1707 17.2492 41.4564 17.493 41.6633C17.7368 41.8702 18.0461 41.9851 18.3667 41.9877H38.78C39.0202 41.9908 39.2536 41.9079 39.4375 41.7542C39.6215 41.6005 39.7438 41.3862 39.7822 41.1504L44.0374 15.1737C44.0609 15.0301 44.0524 14.8831 44.0126 14.7431C43.9728 14.6031 43.9027 14.4735 43.8071 14.3633C43.7116 14.2531 43.593 14.1651 43.4596 14.1053C43.3262 14.0456 43.1813 14.0156 43.035 14.0175L13.7807 14.0123ZM31.6981 32.5777H25.1827L23.4185 23.4122H33.2769L31.6981 32.5777Z" fill="#2684FF"/>
<path d="M42.6583 23.3993H33.2587L31.6811 32.5576H25.171L17.4839 41.6312C17.7276 41.8407 18.0382 41.9572 18.3603 41.9598H38.7624C39.0024 41.9629 39.2356 41.8801 39.4195 41.7266C39.6033 41.573 39.7256 41.3589 39.764 41.1232L42.6583 23.3993Z" fill="url(#paint0_linear_1_1454)"/>
<defs>
<linearGradient id="paint0_linear_1_1454" x1="44.8316" y1="25.964" x2="34.0543" y2="41.3521" gradientUnits="userSpaceOnUse">
<stop offset="0.18" stop-color="#0052CC"/>
<stop offset="1" stop-color="#2684FF"/>
</linearGradient>
</defs>
</svg>