<svg width="56" height="56" viewBox="0 0 56 56" fill="none" xmlns="http://www.w3.org/2000/svg">
<path d="M27.9597 12.4472C27.9597 12.4472 37.0967 12.0359 41.9393 21.2186H27.1827C27.1827 21.2186 24.3958 21.127 22.0201 24.5082C21.3349 25.9245 20.6041 27.3865 21.4263 30.2642C20.2386 28.2545 15.1217 19.3457 15.1217 19.3457C15.1217 19.3457 18.7312 12.8125 27.9597 12.4472Z" fill="#C6352E"/>
<path d="M41.4636 35.7618C41.4636 35.7618 37.2501 43.8794 26.8761 43.4804C28.1559 41.2652 34.2561 30.7019 34.2561 30.7019C34.2561 30.7019 35.7289 28.3344 33.9899 24.5864C33.1058 23.2846 32.2055 21.9205 29.3019 21.1932C31.6371 21.17 41.91 21.1947 41.91 21.1947C41.91 21.1947 45.7623 27.5875 41.4636 35.7618Z" fill="#F4D911"/>
<path d="M14.5207 35.8235C14.5207 35.8235 9.59767 28.1147 15.1309 19.3307C16.4095 21.5468 22.5065 32.112 22.5065 32.112C22.5065 32.112 23.82 34.5711 27.9357 34.9394C29.5046 34.825 31.1365 34.7273 33.2182 32.5766C32.0705 34.6102 26.912 43.4947 26.912 43.4947C26.912 43.4947 19.4497 43.6338 14.5207 35.8235Z" fill="#81B354"/>
<path d="M26.8761 43.5556L28.9518 34.8939C28.9518 34.8939 31.2341 34.7158 33.1465 32.6169C31.9593 34.7053 26.8761 43.5556 26.8761 43.5556Z" fill="#7BAA50"/>
<path d="M21.0078 28.0969C21.0078 24.2786 24.1029 21.1832 27.9215 21.1832C31.7399 21.1832 34.8352 24.2786 34.8352 28.0969C34.8352 31.9154 31.74 35.0109 27.9215 35.0109C24.1029 35.0109 21.0078 31.9155 21.0078 28.0969Z" fill="white"/>
<path d="M22.1649 28.0969C22.1649 24.9178 24.7421 22.3406 27.9216 22.3406C31.1004 22.3406 33.6778 24.9178 33.6778 28.0969C33.6778 31.2761 31.1004 33.8535 27.9216 33.8535C24.7421 33.8536 22.1649 31.2759 22.1649 28.0969Z" fill="url(#paint0_linear_1_5390)"/>
<path d="M41.91 21.1947L33.3629 23.7006C33.3629 23.7006 32.074 21.8092 29.3018 21.1932C31.7039 21.185 41.91 21.1947 41.91 21.1947Z" fill="#E7CE12"/>
<path d="M21.2601 29.9534C20.0589 27.8732 15.1219 19.3455 15.1219 19.3455L21.4535 25.6088C21.4535 25.6088 20.8028 26.9472 21.0495 28.8589L21.2601 29.9534Z" fill="#BC332C"/>
<defs>
<linearGradient id="paint0_linear_1_5390" x1="27.9213" y1="22.422" x2="27.9213" y2="33.5091" gradientUnits="userSpaceOnUse">
<stop stop-color="#A2C0E6"/>
<stop offset="1" stop-color="#406CB1"/>
</linearGradient>
</defs>
</svg>