<svg width="56" height="56" viewBox="0 0 56 56" fill="none" xmlns="http://www.w3.org/2000/svg">
<path d="M43.2487 25.2651C43.1644 25.1981 42.3767 24.6034 40.7155 24.6034C40.2769 24.6053 39.8392 24.6429 39.4067 24.7159C39.0852 22.5122 37.2633 21.4378 37.1816 21.3896L36.7356 21.1324L36.4422 21.5557C36.0748 22.1244 35.8066 22.7513 35.6491 23.4097C35.3517 24.6677 35.5326 25.8492 36.1716 26.8592C35.4 27.2892 34.1622 27.3951 33.9117 27.4045H13.4183C12.883 27.4052 12.4487 27.8378 12.4458 28.373C12.4219 30.1683 12.726 31.9529 13.3433 33.639C14.0493 35.4904 15.0995 36.8541 16.4659 37.6886C17.9971 38.6264 20.4848 39.1622 23.3046 39.1622C24.5785 39.1662 25.85 39.0509 27.1025 38.8179C28.8435 38.4983 30.5187 37.8898 32.059 37.0175C33.3282 36.2825 34.4704 35.3475 35.4415 34.2485C37.0651 32.4106 38.0324 30.3636 38.7517 28.5445H39.0384C40.816 28.5445 41.9092 27.8331 42.512 27.237C42.9126 26.8568 43.2254 26.3937 43.4283 25.88L43.5556 25.5076L43.2487 25.2651Z" fill="#2496ED"/>
<path d="M15.3179 26.8043H18.0641C18.1965 26.8043 18.3039 26.697 18.3039 26.5646V24.1184C18.3046 23.986 18.1979 23.878 18.0654 23.8773C18.065 23.8773 18.0645 23.8773 18.0641 23.8773H15.3179C15.1855 23.8773 15.0781 23.9847 15.0781 24.1171V24.1184V26.5645C15.0781 26.697 15.1855 26.8043 15.3179 26.8043Z" fill="#2496ED"/>
<path d="M19.1023 26.8043H21.8485C21.981 26.8043 22.0883 26.697 22.0883 26.5646V24.1184C22.089 23.986 21.9823 23.878 21.8498 23.8773C21.8494 23.8773 21.8489 23.8773 21.8485 23.8773H19.1023C18.9691 23.8773 18.8611 23.9852 18.8611 24.1184V26.5645C18.8619 26.6972 18.9696 26.8043 19.1023 26.8043Z" fill="#2496ED"/>
<path d="M22.9443 26.8043H25.6905C25.8229 26.8043 25.9303 26.697 25.9303 26.5646V24.1184C25.931 23.986 25.8242 23.878 25.6918 23.8773C25.6914 23.8773 25.6909 23.8773 25.6904 23.8773H22.9442C22.8118 23.8773 22.7045 23.9847 22.7045 24.1171V24.1184V26.5645C22.7045 26.697 22.8119 26.8043 22.9443 26.8043Z" fill="#2496ED"/>
<path d="M26.7408 26.8043H29.4869C29.6196 26.8043 29.7273 26.6972 29.7281 26.5646V24.1184C29.7281 23.9852 29.6201 23.8773 29.4869 23.8773H26.7408C26.6083 23.8773 26.501 23.9847 26.501 24.1171V24.1184V26.5645C26.501 26.697 26.6083 26.8043 26.7408 26.8043Z" fill="#2496ED"/>
<path d="M19.1023 23.2852H21.8485C21.9811 23.2845 22.0882 23.1767 22.0882 23.0441V20.598C22.0882 20.4655 21.9809 20.3582 21.8485 20.3582H19.1023C18.9696 20.3582 18.8619 20.4653 18.8611 20.598V23.0441C18.8619 23.177 18.9694 23.2845 19.1023 23.2852Z" fill="#2496ED"/>
<path d="M22.9442 23.2852H25.6904C25.8231 23.2845 25.9302 23.1767 25.9302 23.0441V20.598C25.9302 20.4655 25.8228 20.3582 25.6904 20.3582H22.9442C22.8118 20.3582 22.7045 20.4656 22.7045 20.598V23.0441C22.7045 23.1767 22.8116 23.2845 22.9442 23.2852Z" fill="#2496ED"/>
<path d="M26.7408 23.2852H29.4869C29.6198 23.2845 29.7273 23.177 29.7281 23.0441V20.598C29.7273 20.4653 29.6196 20.3582 29.4869 20.3582H26.7408C26.6083 20.3582 26.501 20.4656 26.501 20.598V23.0441C26.501 23.1767 26.6081 23.2845 26.7408 23.2852Z" fill="#2496ED"/>
<path d="M26.7408 19.7647H29.4869C29.6196 19.7647 29.7273 19.6576 29.7281 19.525V17.0774C29.7273 16.9448 29.6196 16.8377 29.4869 16.8377H26.7408C26.6083 16.8377 26.501 16.945 26.501 17.0774V19.5249C26.501 19.6574 26.6083 19.7647 26.7408 19.7647Z" fill="#2496ED"/>
<path d="M30.5706 26.8043H33.3168C33.4495 26.8043 33.5572 26.6972 33.558 26.5646V24.1184C33.558 23.9852 33.45 23.8773 33.3168 23.8773H30.5706C30.4382 23.8773 30.3309 23.9847 30.3309 24.1171V24.1184V26.5645C30.3309 26.697 30.4382 26.8043 30.5706 26.8043Z" fill="#2496ED"/>
</svg>