<svg width="56" height="56" viewBox="0 0 56 56" fill="none" xmlns="http://www.w3.org/2000/svg">
<path d="M40.5234 35.5977C40.1087 35.8146 39.681 36.0057 39.2427 36.17C37.8476 36.692 36.3698 36.9579 34.8803 36.955C29.1303 36.955 24.1215 32.9997 24.1215 27.9241C24.1289 27.2433 24.3178 26.5769 24.6688 25.9935C25.0197 25.4101 25.52 24.931 26.118 24.6056C20.9172 24.8243 19.5806 30.2438 19.5806 33.4189C19.5806 42.3964 27.8544 43.3065 29.637 43.3065C30.5982 43.3065 32.0479 43.027 32.9179 42.7524L33.0771 42.6989C36.4251 41.5415 39.2793 39.2787 41.1699 36.283C41.2278 36.1918 41.2536 36.0839 41.2434 35.9763C41.2331 35.8687 41.1872 35.7677 41.1131 35.689C41.0389 35.6104 40.9407 35.5588 40.8339 35.5422C40.7271 35.5257 40.6179 35.5452 40.5234 35.5977Z" fill="url(#paint0_linear_1_5374)"/>
<path opacity="0.35" d="M40.5234 35.5977C40.1087 35.8146 39.681 36.0057 39.2427 36.17C37.8476 36.692 36.3698 36.9579 34.8803 36.955C29.1303 36.955 24.1215 32.9997 24.1215 27.9241C24.1289 27.2433 24.3178 26.5769 24.6688 25.9935C25.0197 25.4101 25.52 24.931 26.118 24.6056C20.9172 24.8243 19.5806 30.2438 19.5806 33.4189C19.5806 42.3964 27.8544 43.3065 29.637 43.3065C30.5982 43.3065 32.0479 43.027 32.9179 42.7524L33.0771 42.6989C36.4251 41.5415 39.2793 39.2787 41.1699 36.283C41.2278 36.1918 41.2536 36.0839 41.2434 35.9763C41.2331 35.8687 41.1872 35.7677 41.1131 35.689C41.0389 35.6104 40.9407 35.5588 40.8339 35.5422C40.7271 35.5257 40.6179 35.5452 40.5234 35.5977Z" fill="url(#paint1_radial_1_5374)"/>
<path d="M25.2929 41.7804C24.2091 41.1077 23.2698 40.2262 22.5297 39.1873C21.6861 38.0315 21.1056 36.7052 20.8289 35.3014C20.5522 33.8975 20.586 32.4502 20.9279 31.0608C21.2698 29.6714 21.9116 28.3736 22.8082 27.2585C23.7047 26.1433 24.8344 25.2379 26.118 24.6056C26.4971 24.427 27.1448 24.1037 28.0063 24.1195C28.6133 24.124 29.211 24.2689 29.7526 24.5429C30.2942 24.817 30.765 25.2128 31.128 25.6992C31.6187 26.3544 31.8893 27.1482 31.9008 27.9667C31.9008 27.9412 34.8731 18.2942 22.1797 18.2942C16.8453 18.2942 12.4586 23.3564 12.4586 27.7978C12.4376 30.1472 12.9403 32.4718 13.9302 34.6026C15.5479 38.0543 18.3769 40.7917 21.8799 42.295C25.383 43.7983 29.3161 43.9629 32.9325 42.7574C31.6663 43.1566 30.3285 43.2764 29.0115 43.1086C27.6945 42.9408 26.4295 42.4893 25.3039 41.7853L25.2929 41.7804Z" fill="url(#paint2_linear_1_5374)"/>
<path opacity="0.41" d="M25.2929 41.7804C24.2091 41.1077 23.2698 40.2262 22.5297 39.1873C21.6861 38.0315 21.1056 36.7052 20.8289 35.3014C20.5522 33.8975 20.586 32.4502 20.9279 31.0608C21.2698 29.6714 21.9116 28.3736 22.8082 27.2585C23.7047 26.1433 24.8344 25.2379 26.118 24.6056C26.4971 24.427 27.1448 24.1037 28.0063 24.1195C28.6133 24.124 29.211 24.2689 29.7526 24.5429C30.2942 24.817 30.765 25.2128 31.128 25.6992C31.6187 26.3544 31.8893 27.1482 31.9008 27.9667C31.9008 27.9412 34.8731 18.2942 22.1797 18.2942C16.8453 18.2942 12.4586 23.3564 12.4586 27.7978C12.4376 30.1472 12.9403 32.4718 13.9302 34.6026C15.5479 38.0543 18.3769 40.7917 21.8799 42.295C25.383 43.7983 29.3161 43.9629 32.9325 42.7574C31.6663 43.1566 30.3285 43.2764 29.0115 43.1086C27.6945 42.9408 26.4295 42.4893 25.3039 41.7853L25.2929 41.7804Z" fill="url(#paint3_radial_1_5374)"/>
<path d="M30.9555 30.533C30.857 30.6606 30.5545 30.8368 30.5545 31.2208C30.5545 31.5379 30.761 31.8429 31.128 32.0993C32.8754 33.3144 36.1696 33.154 36.1781 33.154C37.4729 33.1509 38.7431 32.8006 39.8563 32.1394C40.9794 31.4837 41.9115 30.5457 42.5601 29.4185C43.2087 28.2914 43.5514 27.0142 43.554 25.7138C43.5856 22.9906 42.5819 21.1801 42.176 20.3781C39.6012 15.3413 34.0431 12.4445 27.999 12.4445C23.9115 12.4441 19.9882 14.0527 17.0775 16.9224C14.1668 19.7922 12.5027 23.6924 12.4453 27.7795C12.5036 23.3394 16.917 19.7535 22.1664 19.7535C22.5917 19.7535 25.0171 19.7948 27.2699 20.9772C29.2555 22.0197 30.2956 23.2786 31.0187 24.5266C31.7696 25.8231 31.9033 27.4611 31.9033 28.1137C31.9033 28.7662 31.5703 29.7334 30.9555 30.533Z" fill="url(#paint4_radial_1_5374)"/>
<path d="M30.9555 30.533C30.857 30.6606 30.5545 30.8368 30.5545 31.2208C30.5545 31.5379 30.761 31.8429 31.128 32.0993C32.8754 33.3144 36.1696 33.154 36.1781 33.154C37.4729 33.1509 38.7431 32.8006 39.8563 32.1394C40.9794 31.4837 41.9115 30.5457 42.5601 29.4185C43.2087 28.2914 43.5514 27.0142 43.554 25.7138C43.5856 22.9906 42.5819 21.1801 42.176 20.3781C39.6012 15.3413 34.0431 12.4445 27.999 12.4445C23.9115 12.4441 19.9882 14.0527 17.0775 16.9224C14.1668 19.7922 12.5027 23.6924 12.4453 27.7795C12.5036 23.3394 16.917 19.7535 22.1664 19.7535C22.5917 19.7535 25.0171 19.7948 27.2699 20.9772C29.2555 22.0197 30.2956 23.2786 31.0187 24.5266C31.7696 25.8231 31.9033 27.4611 31.9033 28.1137C31.9033 28.7662 31.5703 29.7334 30.9555 30.533Z" fill="url(#paint5_radial_1_5374)"/>
<defs>
<linearGradient id="paint0_linear_1_5374" x1="19.5806" y1="33.9585" x2="41.2513" y2="33.9585" gradientUnits="userSpaceOnUse">
<stop stop-color="#0C59A4"/>
<stop offset="1" stop-color="#114A8B"/>
</linearGradient>
<radialGradient id="paint1_radial_1_5374" cx="0" cy="0" r="1" gradientUnits="userSpaceOnUse" gradientTransform="translate(31.5497 34.1293) scale(11.59 11.0105)">
<stop offset="0.72" stop-opacity="0"/>
<stop offset="0.95" stop-opacity="0.53"/>
<stop offset="1"/>
</radialGradient>
<linearGradient id="paint2_linear_1_5374" x1="31.0053" y1="24.5582" x2="17.4698" y2="39.3015" gradientUnits="userSpaceOnUse">
<stop stop-color="#1B9DE2"/>
<stop offset="0.16" stop-color="#1595DF"/>
<stop offset="0.67" stop-color="#0680D7"/>
<stop offset="1" stop-color="#0078D4"/>
</linearGradient>
<radialGradient id="paint3_radial_1_5374" cx="0" cy="0" r="1" gradientUnits="userSpaceOnUse" gradientTransform="translate(21.0235 36.6268) rotate(-81.3844) scale(17.4283 14.0803)">
<stop offset="0.76" stop-opacity="0"/>
<stop offset="0.95" stop-opacity="0.5"/>
<stop offset="1"/>
</radialGradient>
<radialGradient id="paint4_radial_1_5374" cx="0" cy="0" r="1" gradientUnits="userSpaceOnUse" gradientTransform="translate(15.5879 18.2014) rotate(92.2906) scale(24.6177 52.4306)">
<stop stop-color="#35C1F1"/>
<stop offset="0.11" stop-color="#34C1ED"/>
<stop offset="0.23" stop-color="#2FC2DF"/>
<stop offset="0.31" stop-color="#2BC3D2"/>
<stop offset="0.67" stop-color="#36C752"/>
</radialGradient>
<radialGradient id="paint5_radial_1_5374" cx="0" cy="0" r="1" gradientUnits="userSpaceOnUse" gradientTransform="translate(41.6174 21.8504) rotate(73.7398) scale(11.8282 9.61866)">
<stop stop-color="#66EB6E"/>
<stop offset="1" stop-color="#66EB6E" stop-opacity="0"/>
</radialGradient>
</defs>
</svg>