<svg width="56" height="56" viewBox="0 0 56 56" fill="none" xmlns="http://www.w3.org/2000/svg">
<path d="M21.9193 24.1268L27.822 20.7189C27.8946 20.677 27.9769 20.6549 28.0608 20.6549C28.1446 20.6549 28.227 20.677 28.2996 20.7189L34.2022 24.1268C34.2748 24.1687 34.335 24.229 34.377 24.3016C34.4189 24.3742 34.4409 24.4565 34.441 24.5404V31.3561C34.441 31.5266 34.3498 31.6842 34.2022 31.7697L28.2996 35.1776C28.227 35.2195 28.1446 35.2416 28.0608 35.2416C27.9769 35.2416 27.8946 35.2195 27.822 35.1776L21.9193 31.7697C21.8468 31.7278 21.7865 31.6675 21.7446 31.5949C21.7026 31.5223 21.6806 31.4399 21.6805 31.3561V24.5402C21.6807 24.3696 21.7717 24.2121 21.9193 24.1267" fill="#8080F2"/>
<path d="M43.3632 27.3897L36.3031 15.1072C36.0467 14.6631 35.573 14.3355 35.0602 14.3355H20.9399C20.4271 14.3355 19.9531 14.6631 19.6967 15.1072L12.6368 27.3626C12.3804 27.8068 12.3804 28.3674 12.6368 28.8116L19.6967 40.9934C19.9531 41.4375 20.4271 41.6645 20.9399 41.6645H35.06C35.5729 41.6645 36.0467 41.4443 36.303 41.0001L43.3631 28.7984C43.6197 28.3545 43.6197 27.8337 43.3631 27.3897H43.3632ZM37.5171 33.2959C37.5171 33.4764 37.4084 33.6435 37.2519 33.7339L28.259 38.9223C28.1815 38.9667 28.0938 38.99 28.0046 38.99C27.9154 38.99 27.8277 38.9667 27.7502 38.9223L18.7504 33.7339C18.594 33.6435 18.4845 33.4765 18.4845 33.2958V22.9188C18.4845 22.7381 18.5924 22.5712 18.7489 22.4808L27.7414 17.2923C27.8188 17.2478 27.9064 17.2245 27.9957 17.2245C28.0849 17.2245 28.1726 17.2478 28.25 17.2923L37.2503 22.4808C37.407 22.5712 37.5171 22.7381 37.5171 22.9188V33.2958V33.2959Z" fill="#4B32C3"/>
</svg>