<svg width="56" height="56" viewBox="0 0 56 56" fill="none" xmlns="http://www.w3.org/2000/svg">
<path d="M37.2833 15.3389C36.5265 16.2199 36.173 18.2055 36.9414 20.216C37.7084 22.2279 38.886 21.791 39.6194 23.8424C40.588 26.5484 40.1366 30.185 40.1366 30.185C40.1366 30.185 41.3009 33.5557 42.1118 29.9746C43.9058 23.2507 37.2833 16.9957 37.2833 15.3389Z" fill="url(#paint0_radial_1_5544)"/>
<path d="M28.0442 43.2618C35.7975 43.2618 42.0782 36.9455 42.0782 29.1594C42.0782 21.3732 35.7975 15.0569 28.0515 15.0569C20.3055 15.0569 14.0249 21.3717 14.0249 29.1594C14.0102 36.9543 20.2982 43.2618 28.0442 43.2618Z" fill="url(#paint1_radial_1_5544)"/>
<path d="M38.5602 37.8543C38.2563 38.0691 37.9378 38.2605 37.6076 38.4285C38.0459 37.7871 38.4506 37.1223 38.8188 36.4371C39.1182 36.1054 39.3914 35.784 39.615 35.4362C39.7231 35.2653 39.8458 35.0549 39.9758 34.8094C40.7633 33.3892 41.6326 31.0924 41.6574 28.7327V28.7269C41.6574 28.6684 41.6589 28.61 41.6574 28.553C41.6618 27.9613 41.6004 27.3695 41.4762 26.7909C41.4821 26.8362 41.4879 26.8815 41.4938 26.9268C41.4865 26.8918 41.4806 26.8567 41.4733 26.8216C41.485 26.8859 41.4938 26.9487 41.504 27.0101C41.6647 28.3762 41.5507 29.7102 40.9766 30.6921C40.9678 30.7067 40.9576 30.7198 40.9488 30.7344C41.2469 29.2412 41.3462 27.5916 41.0146 25.9406C41.0146 25.9406 40.8816 25.1384 39.8955 22.7013C39.3286 21.2987 38.3206 20.1488 37.4294 19.3116C36.6492 18.3458 35.9392 17.6971 35.5491 17.2865C34.7325 16.4274 34.3906 15.7831 34.2503 15.3623C34.1291 15.3009 32.5702 13.7872 32.4461 13.7302C31.7652 14.7851 29.6264 18.0828 30.6447 21.1657C31.1064 22.5625 32.2722 24.0119 33.4921 24.8258C33.5462 24.8871 34.2182 25.6177 34.5381 27.2658C34.8683 28.968 34.6945 30.2961 34.0151 32.2613C33.216 33.9854 31.1677 35.689 29.2495 35.8629C25.15 36.2354 23.6482 33.8042 23.6482 33.8042C25.1135 34.3901 26.7323 34.2674 27.7184 33.6595C28.7118 33.0459 29.3123 32.59 29.7988 32.7697C30.2795 32.948 30.6622 32.4293 30.3189 31.8916C29.7769 31.0573 28.7893 30.6263 27.809 30.7987C26.8155 30.9609 25.9053 31.747 24.6022 30.9857C24.5174 30.9375 24.4356 30.8835 24.3582 30.825C24.272 30.768 24.6372 30.9112 24.5525 30.8469C24.2998 30.7096 23.8512 30.4086 23.7344 30.3019C23.7154 30.2844 23.9316 30.3706 23.9111 30.3531C22.6942 29.3508 22.8461 28.6728 22.8841 28.2476C22.9148 27.9072 23.1354 27.4718 23.5079 27.295C23.6876 27.3929 23.8001 27.4689 23.8001 27.4689C23.8001 27.4689 23.7227 27.3125 23.6818 27.2293C23.6964 27.2234 23.7095 27.2249 23.7241 27.219C23.8717 27.2906 24.1975 27.4747 24.3699 27.5872C24.5934 27.745 24.665 27.8853 24.665 27.8853C24.665 27.8853 24.7234 27.8532 24.6796 27.7158C24.6635 27.6588 24.5963 27.4806 24.3743 27.2994L24.3874 27.3009C24.5204 27.3768 24.646 27.463 24.7629 27.5609C24.8257 27.3345 24.9382 27.0963 24.9134 26.6726C24.8987 26.3745 24.9046 26.2971 24.852 26.1817C24.8052 26.0823 24.8783 26.0443 24.9601 26.1466C24.9455 26.0662 24.9221 25.9873 24.89 25.9128V25.9055C24.9922 25.5505 27.0478 24.6256 27.1968 24.5175C27.4423 24.3436 27.6483 24.1201 27.8017 23.86C27.9156 23.6773 28.0018 23.4217 28.0223 23.0345C28.034 22.7554 27.9039 22.5684 25.825 22.3507C25.2567 22.2952 24.9236 21.8831 24.7337 21.5032C24.6986 21.4214 24.6635 21.3469 24.6285 21.2724C24.5949 21.1862 24.5671 21.0971 24.5481 21.0065C24.8885 20.0305 25.4583 19.2049 26.2983 18.5811C26.3436 18.5387 26.1157 18.5913 26.161 18.5504C26.2151 18.5022 26.5628 18.3619 26.6285 18.3297C26.7089 18.2918 26.2852 18.112 25.9097 18.1559C25.5284 18.1982 25.4466 18.245 25.2435 18.3312C25.3283 18.2465 25.5971 18.1369 25.5343 18.1369C25.1223 18.1997 24.6124 18.4393 24.1741 18.7096C24.1727 18.6629 24.1829 18.6161 24.2004 18.5723C23.9973 18.6585 23.4962 19.0077 23.3516 19.3043C23.3574 19.2473 23.3604 19.1903 23.3604 19.1333C23.2055 19.2634 23.0652 19.4095 22.9425 19.5702L22.9352 19.5775C21.7548 19.1012 20.7146 19.0705 19.8351 19.2838C19.6422 19.091 19.5487 19.2312 19.1104 18.2698C19.0812 18.2114 19.1338 18.3268 19.1104 18.2698C19.0388 18.0828 19.1543 18.5182 19.1104 18.2698C18.3741 18.8514 17.4055 19.5088 16.9409 19.9735C16.9351 19.9925 17.4829 19.8186 16.9409 19.9735C16.751 20.0275 16.7641 20.14 16.7349 21.1599C16.7276 21.2373 16.7335 21.3235 16.7276 21.3937C16.3565 21.8671 16.1038 22.2674 16.0074 22.4749C15.5267 23.3033 14.9978 24.5935 14.485 26.6346C14.7115 26.0808 14.9832 25.5475 15.3003 25.0405C14.8737 26.1247 14.4617 27.8254 14.3799 30.4451C14.4836 29.9045 14.6151 29.3698 14.7758 28.8438C14.675 31.0179 15.0504 33.1876 15.8744 35.201C16.1695 35.9228 16.6575 37.0171 17.4873 38.2181C20.0966 40.9635 23.7767 42.673 27.8528 42.673C32.113 42.673 35.9348 40.8116 38.5602 37.8543Z" fill="url(#paint2_linear_1_5544)"/>
<path d="M35.4118 39.8487C40.5617 39.2526 42.8408 33.9459 39.913 33.8407C37.2687 33.7574 32.972 40.1307 35.4118 39.8487Z" fill="url(#paint3_radial_1_5544)"/>
<path d="M40.2841 32.7581C43.827 30.6965 42.9037 26.2416 42.9037 26.2416C42.9037 26.2416 41.5362 27.8298 40.607 30.3619C39.6895 32.8691 38.154 34.0029 40.2841 32.7581Z" fill="url(#paint4_radial_1_5544)"/>
<path d="M29.0362 42.4845C33.9757 44.061 38.2213 40.1687 35.6047 38.8698C33.2248 37.698 26.6928 41.7393 29.0362 42.4845Z" fill="url(#paint5_radial_1_5544)"/>
<path d="M40.6523 34.6487C40.7721 34.4792 40.9342 33.9357 41.0789 33.6932C41.9511 32.2847 41.9569 31.1626 41.9569 31.1377C42.4843 28.5063 42.4361 27.4324 42.1118 25.4453C41.8503 23.8454 40.7107 21.5529 39.7231 20.4498C38.7048 19.3131 39.4221 19.6827 38.436 18.8528C37.5726 17.8944 36.734 16.9461 36.2782 16.5648C32.9808 13.8077 33.0553 13.2218 33.1181 13.1224C33.1079 13.1341 33.0918 13.1516 33.0714 13.175C33.0319 13.0187 33.0042 12.8886 33.0042 12.8886C33.0042 12.8886 31.2013 14.6916 30.8229 17.6942C30.5746 19.655 31.3094 21.699 32.3716 23.0067C32.9253 23.6832 33.5506 24.2983 34.2372 24.8404V24.8389C35.0407 25.9917 35.4819 27.4148 35.4819 28.9461C35.4819 32.78 32.373 35.8877 28.538 35.8877C28.015 35.8877 27.4949 35.8293 26.985 35.7139C25.1749 35.369 24.1303 34.4559 23.6087 33.8364C23.3107 33.4813 23.1836 33.2227 23.1836 33.2227C24.8053 33.8042 26.5979 33.6815 27.6877 33.0795C28.7864 32.4702 29.4511 32.0188 29.9902 32.197C30.522 32.3738 30.9457 31.8595 30.5658 31.3262C30.1933 30.7929 29.2247 30.0302 27.7871 30.2421C26.687 30.4028 25.6789 31.183 24.2384 30.4262C24.1449 30.3779 24.0558 30.3253 23.9681 30.2669C23.8732 30.2114 24.2764 30.3516 24.1829 30.2888C23.9024 30.1529 23.4057 29.8549 23.2771 29.7497C23.2552 29.7321 23.4948 29.8183 23.4729 29.8008C22.1259 28.8058 22.2939 28.1352 22.3362 27.7129C22.3698 27.3754 22.6153 26.9444 23.0273 26.769C23.226 26.8669 23.3501 26.9415 23.3501 26.9415C23.3501 26.9415 23.2654 26.7866 23.2187 26.7033C23.2347 26.6974 23.2508 26.6989 23.2654 26.6931C23.429 26.7632 23.7899 26.9473 23.9798 27.0583C24.2267 27.2147 24.3056 27.3549 24.3056 27.3549C24.3056 27.3549 24.3714 27.3228 24.3231 27.1869C24.3056 27.1314 24.2311 26.9531 23.9857 26.7734L24.0003 26.7749C24.1464 26.8494 24.2852 26.9356 24.4152 27.0335C24.4838 26.8085 24.608 26.5733 24.5817 26.1525C24.5657 25.8573 24.573 25.7799 24.5145 25.6659C24.4619 25.568 24.5437 25.53 24.6343 25.6308C24.6183 25.5505 24.5934 25.4731 24.5569 25.3985L24.5584 25.3912C24.6708 25.0391 26.947 24.123 27.1121 24.0149C27.3795 23.8469 27.6074 23.6248 27.7812 23.3632C27.9083 23.1821 28.0033 22.9293 28.0267 22.545C28.034 22.3711 27.9814 22.2353 27.378 22.1038C27.0157 22.0249 26.4561 21.9489 25.5942 21.8671C24.9645 21.8115 24.5963 21.4024 24.386 21.0255C24.348 20.9437 24.3085 20.8706 24.2691 20.7975C24.2326 20.7113 24.2019 20.6237 24.18 20.5331C24.5584 19.5454 25.2362 18.7038 26.1201 18.1267C26.1713 18.0858 25.917 18.1369 25.9682 18.096C26.0266 18.0478 26.4123 17.909 26.4854 17.8768C26.5745 17.8388 26.104 17.6606 25.6906 17.7044C25.2684 17.7468 25.1793 17.7921 24.9528 17.8783C25.0463 17.795 25.3443 17.6854 25.2742 17.6869C24.8184 17.7497 24.253 17.9864 23.7694 18.2552C23.768 18.2085 23.7782 18.1617 23.7987 18.1194C23.5737 18.2056 23.02 18.5518 22.8593 18.8455C22.8666 18.79 22.8695 18.733 22.868 18.676C22.6986 18.8032 22.5437 18.9478 22.4064 19.1085L22.3976 19.1158C21.09 18.6439 19.9403 18.6132 18.9658 18.8251C18.7525 18.6337 18.4106 18.3429 17.9256 17.3903C17.892 17.3333 17.8745 17.5086 17.8496 17.4516C17.6612 17.0148 17.5472 16.2988 17.5662 15.8064C17.5662 15.8064 17.1761 15.9832 16.8547 16.7255C16.7948 16.8584 16.7568 16.933 16.7188 17.006C16.7013 17.0279 16.7583 16.762 16.7495 16.7766C16.694 16.8716 16.5479 17.0045 16.4851 17.1755C16.4413 17.3026 16.3799 17.3742 16.3405 17.532L16.3317 17.5466C16.3288 17.4999 16.3434 17.3537 16.3332 17.3844C16.1827 17.6898 16.0527 18.0054 15.9445 18.3283C15.7707 18.8996 15.5691 19.6754 15.5369 20.6865C15.5296 20.7625 15.5355 20.8487 15.5296 20.9174C15.1191 21.3864 14.8386 21.7838 14.7334 21.9898C14.2002 22.808 13.6143 24.0879 13.046 26.1115C13.2987 25.5593 13.6012 25.0289 13.9489 24.5306C13.477 25.6045 13.0212 27.2921 12.9291 29.8914C13.0431 29.3537 13.1906 28.8233 13.3674 28.3032C13.2856 30.0361 13.4872 32.1839 14.5829 34.6078C15.2331 36.0338 16.7305 38.9283 20.3888 41.1871C24.047 43.446 21.6335 42.1135 23.7724 42.8075C23.9301 42.8645 24.0908 42.9214 24.2545 42.9755C24.2048 42.9551 24.1551 42.9331 24.1055 42.9112C25.5299 43.3379 27.0069 43.5556 28.4942 43.5556C34.0327 43.5599 35.666 41.3362 35.666 41.3362C35.666 41.3362 35.6602 41.3405 35.6499 41.3478C35.7274 41.2748 35.8033 41.1974 35.8764 41.1185C35.0027 41.944 33.0085 41.998 32.262 41.9396C33.533 41.5655 34.3701 41.25 35.9977 40.6261C36.1876 40.5559 36.3834 40.4756 36.582 40.385C36.604 40.3762 36.6259 40.3645 36.6463 40.3558C36.6858 40.3368 36.7252 40.3207 36.7647 40.3002C37.558 39.9262 38.303 39.4601 38.9868 38.9093C40.6216 37.6031 40.9766 36.3304 41.1636 35.4918C41.1373 35.5721 41.057 35.7592 41 35.8819C40.5792 36.7819 39.6457 37.3357 38.6318 37.8091C39.1139 37.1764 39.5609 36.5175 39.9715 35.8351C40.3016 35.5079 40.4054 34.9935 40.6523 34.6487Z" fill="url(#paint6_radial_1_5544)"/>
<path d="M38.6625 37.7711C39.3287 37.0361 39.9277 36.196 40.3806 35.2419C41.5479 32.7887 43.3507 28.7094 41.9306 24.4503C40.8072 21.0839 39.2658 19.2429 37.3096 17.4443C34.1306 14.5236 33.2423 13.2203 33.2423 12.4445C33.2423 12.4445 29.5724 16.537 31.1634 20.8034C32.7543 25.0698 36.0152 24.9149 38.1716 29.3683C40.7093 34.6092 36.1175 40.328 32.3204 41.9293C32.5527 41.8782 40.7604 40.0197 41.1928 35.3252C41.1841 35.4114 40.9985 36.7088 38.6625 37.7711Z" fill="url(#paint7_radial_1_5544)"/>
<path d="M28.0281 22.5421C28.0413 22.2645 27.8966 22.0789 25.6044 21.8641C24.6606 21.7765 24.2998 20.9057 24.1902 20.5375C23.8542 21.4097 23.7168 22.3229 23.7913 23.4304C23.8425 24.1551 24.329 24.9324 24.5613 25.3898C24.5613 25.3898 24.6124 25.3226 24.6372 25.2977C25.0755 24.8419 26.9119 24.1464 27.0843 24.047C27.2728 23.9272 27.9974 23.3983 28.0281 22.5421Z" fill="url(#paint8_linear_1_5544)"/>
<path d="M17.9344 17.3917C17.9008 17.3347 17.8832 17.5101 17.8584 17.4531C17.6699 17.0162 17.556 16.309 17.5823 15.8079C17.5823 15.8079 17.1922 15.9847 16.8708 16.7269C16.8109 16.8599 16.7729 16.9344 16.7349 17.0075C16.7174 17.0294 16.7744 16.7634 16.7656 16.7781C16.7101 16.873 16.564 17.006 16.5012 17.1696C16.4486 17.3041 16.396 17.3756 16.3551 17.5422C16.3434 17.5875 16.3668 17.342 16.3565 17.3727C15.6071 18.8221 15.4639 21.0123 15.5428 20.9203C17.1381 19.2166 18.9673 18.8119 18.9673 18.8119C18.7744 18.6673 18.3507 18.2538 17.9344 17.3917Z" fill="url(#paint9_linear_1_5544)"/>
<path d="M23.99 35.2141C21.7855 34.2732 19.2799 32.945 19.3734 29.9294C19.502 25.9581 23.0769 26.7427 23.0769 26.7427C22.9425 26.7749 22.5817 27.032 22.4531 27.3067C22.3187 27.6486 22.0718 28.4215 22.8184 29.2324C23.9915 30.5036 20.4092 32.2481 25.9375 35.5429C26.0778 35.6174 24.6431 35.4961 23.99 35.2141Z" fill="url(#paint10_linear_1_5544)"/>
<path d="M23.207 33.2341C24.7702 33.7776 26.5906 33.6826 27.6819 33.0807C28.4124 32.6745 29.3474 32.0229 29.9245 32.1837C29.4263 31.9864 29.0479 31.8944 28.5936 31.8725C28.5161 31.8725 28.4241 31.871 28.3393 31.8622C28.1728 31.8622 28.0062 31.871 27.8412 31.89C27.5592 31.9163 27.248 32.0931 26.9646 32.0653C26.95 32.0639 27.2392 31.9455 27.2159 31.9514C27.0654 31.982 26.9018 31.9893 26.7294 32.0113C26.6198 32.0229 26.5248 32.0376 26.4167 32.0419C23.1602 32.3181 20.4092 30.2771 20.4092 30.2771C20.174 31.0646 21.4567 32.6249 23.207 33.2341Z" fill="url(#paint11_linear_1_5544)"/>
<path d="M38.6566 37.7915C41.9496 34.5581 43.6166 30.6278 42.9109 26.2182C42.9109 26.2182 43.1929 28.4785 42.1249 30.7914C42.6377 28.534 42.6976 25.7287 41.336 22.8241C39.5186 18.9463 36.5295 16.9066 35.387 16.0548C33.6587 14.7647 32.9413 13.4526 32.9282 13.1808C32.411 14.2387 30.8492 17.8666 32.7602 20.9904C34.5513 23.917 37.3724 24.7863 39.3462 27.4704C42.9854 32.4176 38.6566 37.7915 38.6566 37.7915Z" fill="url(#paint12_linear_1_5544)"/>
<path d="M38.1847 29.3785C37.0335 27.0013 35.5974 25.964 34.2387 24.8389C34.3964 25.0596 34.4359 25.1385 34.5235 25.2816C35.7201 26.5557 37.4834 29.6664 36.2022 33.569C33.7916 40.9168 24.1522 37.4569 23.1412 36.4853C23.5503 40.7371 30.6666 42.7724 35.3008 40.0153C37.9378 37.5183 40.0708 33.2753 38.1847 29.3785Z" fill="url(#paint13_linear_1_5544)"/>
<defs>
<radialGradient id="paint0_radial_1_5544" cx="0" cy="0" r="1" gradientUnits="userSpaceOnUse" gradientTransform="translate(41.6484 20.2245) rotate(2.55508) scale(10.873 15.9831)">
<stop offset="0.045" stop-color="#FFEA00"/>
<stop offset="0.12" stop-color="#FFDE00"/>
<stop offset="0.254" stop-color="#FFBF00"/>
<stop offset="0.429" stop-color="#FF8E00"/>
<stop offset="0.769" stop-color="#FF272D"/>
<stop offset="0.872" stop-color="#E0255A"/>
<stop offset="0.953" stop-color="#CC2477"/>
<stop offset="1" stop-color="#C42482"/>
</radialGradient>
<radialGradient id="paint1_radial_1_5544" cx="0" cy="0" r="1" gradientUnits="userSpaceOnUse" gradientTransform="translate(33.8947 18.5506) scale(30.6446 30.6474)">
<stop stop-color="#00CCDA"/>
<stop offset="0.22" stop-color="#0083FF"/>
<stop offset="0.261" stop-color="#007AF9"/>
<stop offset="0.33" stop-color="#0060E8"/>
<stop offset="0.333" stop-color="#005FE7"/>
<stop offset="0.438" stop-color="#2639AD"/>
<stop offset="0.522" stop-color="#401E84"/>
<stop offset="0.566" stop-color="#4A1475"/>
</radialGradient>
<linearGradient id="paint2_linear_1_5544" x1="30.0226" y1="35.5006" x2="23.969" y2="15.6999" gradientUnits="userSpaceOnUse">
<stop stop-color="#000F43" stop-opacity="0.4"/>
<stop offset="0.485" stop-color="#001962" stop-opacity="0.173"/>
<stop offset="1" stop-color="#002079" stop-opacity="0"/>
</linearGradient>
<radialGradient id="paint3_radial_1_5544" cx="0" cy="0" r="1" gradientUnits="userSpaceOnUse" gradientTransform="translate(38.4819 28.4392) rotate(5.67027) scale(10.3364 10.3373)">
<stop offset="0.003" stop-color="#FFEA00"/>
<stop offset="0.497" stop-color="#FF272D"/>
<stop offset="1" stop-color="#C42482"/>
</radialGradient>
<radialGradient id="paint4_radial_1_5544" cx="0" cy="0" r="1" gradientUnits="userSpaceOnUse" gradientTransform="translate(38.5305 18.4831) rotate(5.67019) scale(17.2611 17.2625)">
<stop offset="0.003" stop-color="#FFE900"/>
<stop offset="0.157" stop-color="#FFAF0E"/>
<stop offset="0.316" stop-color="#FF7A1B"/>
<stop offset="0.472" stop-color="#FF4E26"/>
<stop offset="0.621" stop-color="#FF2C2E"/>
<stop offset="0.762" stop-color="#FF1434"/>
<stop offset="0.892" stop-color="#FF0538"/>
<stop offset="1" stop-color="#FF0039"/>
</radialGradient>
<radialGradient id="paint5_radial_1_5544" cx="0" cy="0" r="1" gradientUnits="userSpaceOnUse" gradientTransform="translate(39.3791 34.6481) rotate(5.67019) scale(15.8388 15.8401)">
<stop offset="0.003" stop-color="#FF272D"/>
<stop offset="0.497" stop-color="#C42482"/>
<stop offset="0.986" stop-color="#620700"/>
</radialGradient>
<radialGradient id="paint6_radial_1_5544" cx="0" cy="0" r="1" gradientUnits="userSpaceOnUse" gradientTransform="translate(35.541 24.9033) scale(24.7299 24.7322)">
<stop offset="0.156" stop-color="#FFEA00"/>
<stop offset="0.231" stop-color="#FFDE00"/>
<stop offset="0.365" stop-color="#FFBF00"/>
<stop offset="0.541" stop-color="#FF8E00"/>
<stop offset="0.763" stop-color="#FF272D"/>
<stop offset="0.796" stop-color="#F92433"/>
<stop offset="0.841" stop-color="#E91C45"/>
<stop offset="0.893" stop-color="#CF0E62"/>
<stop offset="0.935" stop-color="#B5007F"/>
</radialGradient>
<radialGradient id="paint7_radial_1_5544" cx="0" cy="0" r="1" gradientUnits="userSpaceOnUse" gradientTransform="translate(33.6803 12.4846) scale(29.2016 29.2043)">
<stop offset="0.279" stop-color="#FFEA00"/>
<stop offset="0.402" stop-color="#FFDD00"/>
<stop offset="0.63" stop-color="#FFBA00"/>
<stop offset="0.856" stop-color="#FF9100"/>
<stop offset="0.933" stop-color="#FF6711"/>
<stop offset="0.994" stop-color="#FF4A1D"/>
</radialGradient>
<linearGradient id="paint8_linear_1_5544" x1="13.5086" y1="24.6192" x2="24.7452" y2="22.9138" gradientUnits="userSpaceOnUse">
<stop stop-color="#C42482" stop-opacity="0.5"/>
<stop offset="0.474" stop-color="#FF272D" stop-opacity="0.5"/>
<stop offset="0.486" stop-color="#FF2C2C" stop-opacity="0.513"/>
<stop offset="0.675" stop-color="#FF7A1A" stop-opacity="0.72"/>
<stop offset="0.829" stop-color="#FFB20D" stop-opacity="0.871"/>
<stop offset="0.942" stop-color="#FFD605" stop-opacity="0.964"/>
<stop offset="1" stop-color="#FFE302"/>
</linearGradient>
<linearGradient id="paint9_linear_1_5544" x1="17.4572" y1="20.5969" x2="16.1817" y2="16.0248" gradientUnits="userSpaceOnUse">
<stop stop-color="#891551" stop-opacity="0.6"/>
<stop offset="1" stop-color="#C42482" stop-opacity="0"/>
</linearGradient>
<linearGradient id="paint10_linear_1_5544" x1="19.9012" y1="27.2765" x2="22.5246" y2="30.9363" gradientUnits="userSpaceOnUse">
<stop offset="0.005" stop-color="#891551" stop-opacity="0.5"/>
<stop offset="0.484" stop-color="#FF272D" stop-opacity="0.5"/>
<stop offset="1" stop-color="#FF272D" stop-opacity="0"/>
</linearGradient>
<linearGradient id="paint11_linear_1_5544" x1="24.9114" y1="33.6928" x2="25.1496" y2="31.3405" gradientUnits="userSpaceOnUse">
<stop stop-color="#C42482"/>
<stop offset="0.083" stop-color="#C42482" stop-opacity="0.81"/>
<stop offset="0.206" stop-color="#C42482" stop-opacity="0.565"/>
<stop offset="0.328" stop-color="#C42482" stop-opacity="0.362"/>
<stop offset="0.447" stop-color="#C42482" stop-opacity="0.204"/>
<stop offset="0.562" stop-color="#C42482" stop-opacity="0.091"/>
<stop offset="0.673" stop-color="#C42482" stop-opacity="0.023"/>
<stop offset="0.773" stop-color="#C42482" stop-opacity="0"/>
</linearGradient>
<linearGradient id="paint12_linear_1_5544" x1="32.5482" y1="13.586" x2="42.2135" y2="35.1971" gradientUnits="userSpaceOnUse">
<stop stop-color="#FFF14F"/>
<stop offset="0.268" stop-color="#FFEE4C"/>
<stop offset="0.452" stop-color="#FFE643"/>
<stop offset="0.612" stop-color="#FFD834"/>
<stop offset="0.757" stop-color="#FFC41E"/>
<stop offset="0.892" stop-color="#FFAB02"/>
<stop offset="0.902" stop-color="#FFA900"/>
<stop offset="0.949" stop-color="#FFA000"/>
<stop offset="1" stop-color="#FF9100"/>
</linearGradient>
<linearGradient id="paint13_linear_1_5544" x1="34.4564" y1="26.0153" x2="29.878" y2="38.3071" gradientUnits="userSpaceOnUse">
<stop stop-color="#FF8E00"/>
<stop offset="0.04" stop-color="#FF8E00" stop-opacity="0.858"/>
<stop offset="0.084" stop-color="#FF8E00" stop-opacity="0.729"/>
<stop offset="0.13" stop-color="#FF8E00" stop-opacity="0.628"/>
<stop offset="0.178" stop-color="#FF8E00" stop-opacity="0.557"/>
<stop offset="0.227" stop-color="#FF8E00" stop-opacity="0.514"/>
<stop offset="0.282" stop-color="#FF8E00" stop-opacity="0.5"/>
<stop offset="0.389" stop-color="#FF8E00" stop-opacity="0.478"/>
<stop offset="0.524" stop-color="#FF8E00" stop-opacity="0.416"/>
<stop offset="0.676" stop-color="#FF8E00" stop-opacity="0.314"/>
<stop offset="0.838" stop-color="#FF8E00" stop-opacity="0.172"/>
<stop offset="1" stop-color="#FF8E00" stop-opacity="0"/>
</linearGradient>
</defs>
</svg>