<svg width="57" height="56" viewBox="0 0 57 56" fill="none" xmlns="http://www.w3.org/2000/svg">
<path d="M42.8509 39.6624C42.8625 41.7984 41.1303 43.5377 38.9836 43.5492C38.824 43.5505 38.6632 43.5415 38.5049 43.5223C36.5127 43.2293 35.0532 41.5053 35.1021 39.5037V16.49C35.0545 14.4858 36.5178 12.7619 38.5113 12.4713C40.6438 12.2231 42.5755 13.7409 42.8252 15.8616C42.8432 16.0177 42.8522 16.1739 42.8509 16.3313V39.6624Z" fill="#F9AB00"/>
<path d="M18.4655 35.8485C20.6057 35.8485 22.3406 37.5737 22.3406 39.702C22.3406 41.8304 20.6057 43.5556 18.4655 43.5556C16.3253 43.5556 14.5905 41.8304 14.5905 39.702C14.5905 37.5737 16.3253 35.8485 18.4655 35.8485ZM28.6609 24.1701C26.5104 24.2879 24.8424 26.0809 24.8926 28.222V38.5719C24.8926 41.3811 26.1358 43.0859 27.9569 43.4493C30.0585 43.8729 32.1061 42.5227 32.5321 40.4328C32.5848 40.1768 32.6106 39.917 32.6093 39.6559V28.0429C32.6132 25.9068 30.8758 24.1727 28.7278 24.1688C28.7059 24.1688 28.6828 24.1688 28.6609 24.1701Z" fill="#E37400"/>
</svg>