<svg width="56" height="56" viewBox="0 0 56 56" fill="none" xmlns="http://www.w3.org/2000/svg">
<path d="M33.1888 42.6804C35.4873 34.4386 34.6602 30.2841 30.6307 29.4858C31.2462 32.2844 31.9386 35.1599 28.9958 37.1025C27.4571 38.1219 26.2357 37.7276 23.5045 35.6311C22.2446 38.2181 22.6678 40.7955 23.2544 43.5556C19.3403 42.8728 16.2532 41.2475 14.8203 37.468C13.3392 34.0251 14.1567 30.034 16.8495 27.4374C17.7919 26.4757 18.8113 25.6006 19.8981 24.812C24.3027 21.5037 25.1586 18.2916 22.8313 13.3196C22.7255 13.0311 22.6389 12.7426 22.5812 12.4445C27.4763 13.185 32.1117 15.1565 36.0547 18.157C44.6427 25.1774 43.6041 37.8046 34.1217 42.44C33.7947 42.4592 33.4869 42.5362 33.1888 42.6804Z" fill="#EE4854"/>
</svg>