<svg width="57" height="56" viewBox="0 0 57 56" fill="none" xmlns="http://www.w3.org/2000/svg">
<path d="M41.0301 12.4444H15.4173C13.851 12.4444 12.5812 13.7071 12.5812 15.2647V40.7353C12.5812 42.2929 13.851 43.5556 15.4173 43.5556H41.0301C42.5964 43.5556 43.8661 42.2929 43.8661 40.7353V15.2647C43.8661 13.7071 42.5964 12.4444 41.0301 12.4444Z" fill="#DC395F"/>
<path d="M23.0366 22.2329C24.0766 22.2329 24.9478 21.4223 24.9478 20.3599C24.9478 19.2982 24.0766 18.4878 23.0366 18.4878C21.9966 18.4878 21.1257 19.2982 21.1257 20.3599C21.1257 21.4222 21.9966 22.2329 23.0366 22.2329ZM19.0739 32.2614C18.9616 32.7366 18.9053 33.2497 18.9053 33.6682C18.9053 35.3175 19.8046 36.4123 21.7158 36.4123C23.3008 36.4123 24.5858 35.4763 25.5111 33.9649L24.9461 36.2196H28.0935L29.8924 29.0447C30.3421 27.2281 31.2134 26.2851 32.5344 26.2851C33.5743 26.2851 34.2206 26.9283 34.2206 27.9899C34.2206 28.2975 34.1925 28.6326 34.0801 28.9961L33.1525 32.294C33.012 32.7691 32.956 33.2446 32.956 33.6914C32.956 35.2571 33.8832 36.4022 35.8225 36.4022C37.4807 36.4022 38.8015 35.3407 39.5323 32.7972L38.2958 32.3225C37.6775 34.0265 37.1434 34.3345 36.7218 34.3345C36.3002 34.3345 36.0753 34.0553 36.0753 33.4966C36.0753 33.245 36.1318 32.9659 36.2159 32.6298L37.1154 29.4168C37.3402 28.6623 37.4246 27.9933 37.4246 27.3786C37.4246 24.9751 35.963 23.7207 34.1925 23.7207C32.5344 23.7207 30.848 25.208 30.005 26.7734L30.6231 23.9637H25.8174L25.1429 26.4385H27.3913L26.0067 31.951C24.9195 34.3546 22.9222 34.3936 22.6716 34.3378C22.26 34.2455 21.9968 34.09 21.9968 33.5582C21.9968 33.2514 22.053 32.8106 22.1935 32.2791L24.3016 23.9637H18.9616L18.2871 26.4385H20.5072L19.0741 32.2614" fill="white"/>
</svg>