<svg width="57" height="56" viewBox="0 0 57 56" fill="none" xmlns="http://www.w3.org/2000/svg">
<path fill-rule="evenodd" clip-rule="evenodd" d="M42.5181 21.2487L42.6458 21.545C43.5822 23.5979 44.0504 25.7566 44.0504 28C44.0504 36.5714 37.0272 43.5556 28.4079 43.5556C19.7886 43.5556 12.7654 36.5714 12.7654 28C12.7654 19.4286 19.7886 12.4444 28.4079 12.4444C30.9405 12.4444 33.3453 13.037 35.5588 14.1376L35.8566 14.2857L35.6013 14.4973C34.9629 15.0053 34.4734 15.6402 34.1542 16.381L34.069 16.5926L33.8775 16.5079C32.1536 15.7037 30.3233 15.2804 28.4079 15.2804C21.3422 15.2804 15.6173 20.9735 15.6173 28C15.6173 35.0264 21.3422 40.7196 28.4079 40.7196C35.4736 40.7196 41.1985 35.0052 41.1985 28C41.1985 26.3281 40.8793 24.6772 40.2195 23.1323L40.1345 22.9206L40.3472 22.8359C41.0921 22.5608 41.7731 22.0952 42.3052 21.5026L42.5181 21.2487ZM38.6446 21.545C40.443 21.545 41.9009 20.0952 41.9009 18.3069C41.9009 16.5185 40.443 15.0688 38.6446 15.0688C36.8463 15.0688 35.3884 16.5185 35.3884 18.3069C35.3884 20.0952 36.8463 21.545 38.6446 21.545ZM28.4078 20.9101C24.4706 20.9101 21.2783 24.0847 21.2783 28.0001C21.2783 31.9154 24.4706 35.09 28.4078 35.09C32.345 35.09 35.5373 31.9154 35.5373 28.0001C35.5373 24.0847 32.345 20.9101 28.4078 20.9101Z" fill="#3880FF"/>
</svg>