<svg width="56" height="56" viewBox="0 0 56 56" fill="none" xmlns="http://www.w3.org/2000/svg">
<path d="M42.2559 12.4445H27.2744C27.2744 14.2381 27.9869 15.9583 29.2552 17.2265C30.5235 18.4948 32.2437 19.2073 34.0373 19.2073H36.7971V21.872C36.7995 25.6036 39.8239 28.6281 43.5555 28.6306V13.7441C43.5555 13.0265 42.9738 12.4445 42.2559 12.4445Z" fill="#2684FF"/>
<path d="M34.8431 19.9092H19.8617C19.864 23.6408 22.8884 26.6654 26.6202 26.6678H29.38V29.341C29.3847 33.0726 32.4112 36.0951 36.1429 36.0951V21.2091C36.1429 20.4913 35.5609 19.9093 34.8431 19.9093V19.9092Z" fill="url(#paint0_linear_1_5796)"/>
<path d="M27.426 27.3697H12.4445C12.4445 31.1047 15.4724 34.1326 19.2073 34.1326H21.9758V36.7971C21.9782 40.5253 24.9974 43.5485 28.7257 43.5556V28.6695C28.7257 27.9516 28.1438 27.3697 27.426 27.3697Z" fill="url(#paint1_linear_1_5796)"/>
<defs>
<linearGradient id="paint0_linear_1_5796" x1="35.8223" y1="19.9353" x2="29.4881" y2="26.5447" gradientUnits="userSpaceOnUse">
<stop offset="0.18" stop-color="#0052CC"/>
<stop offset="1" stop-color="#2684FF"/>
</linearGradient>
<linearGradient id="paint1_linear_1_5796" x1="28.834" y1="27.4433" x2="21.507" y2="34.6522" gradientUnits="userSpaceOnUse">
<stop offset="0.18" stop-color="#0052CC"/>
<stop offset="1" stop-color="#2684FF"/>
</linearGradient>
</defs>
</svg>