<svg width="250" height="275" viewBox="0 0 250 275" fill="none" xmlns="http://www.w3.org/2000/svg">
<path d="M79.5524 6.42575C86.9705 2.41606 95.91 2.41607 103.328 6.42578L169.768 42.3388C177.846 46.7052 182.88 55.1488 182.88 64.3315V133.374C182.88 142.557 177.846 151 169.768 155.367L103.328 191.28C95.91 195.289 86.9705 195.289 79.5524 191.28L13.1122 155.367C5.03414 151 0 142.557 0 133.374V64.3315C0 55.1488 5.03413 46.7052 13.1122 42.3388L79.5524 6.42575Z" fill="#D3D5DA"/>
<path d="M112.626 83.7202C120.044 79.7104 128.984 79.7104 136.402 83.7202L202.841 119.633C210.919 124 215.953 132.443 215.953 141.626V210.669C215.953 219.851 210.919 228.295 202.841 232.661L136.402 268.574C128.984 272.584 120.044 272.584 112.626 268.574L46.1871 232.661C38.1091 228.295 33.075 219.851 33.075 210.669V141.626C33.075 132.443 38.1091 124 46.1871 119.633L112.626 83.7202Z" fill="#D3D5DA" fill-opacity="0.2"/>
<path d="M146.673 34.2936C154.091 30.2839 163.03 30.2839 170.448 34.2936L236.888 70.2066C244.966 74.5731 250 83.0167 250 92.1994V161.242C250 170.424 244.966 178.868 236.888 183.234L170.448 219.147C163.03 223.157 154.091 223.157 146.673 219.147L80.2324 183.234C72.1544 178.868 67.1203 170.424 67.1203 161.242V92.1994C67.1203 83.0167 72.1544 74.5731 80.2325 70.2067L146.673 34.2936Z" fill="#D3D5DA" fill-opacity="0.6"/>
</svg>