<svg width="56" height="56" viewBox="0 0 56 56" fill="none" xmlns="http://www.w3.org/2000/svg">
<path d="M39.2336 29.7466C38.1482 29.7523 37.2049 30.0137 36.415 30.4001C36.1252 29.8262 35.8354 29.3147 35.7842 28.9397C35.7274 28.5021 35.6592 28.235 35.7274 27.7123C35.7956 27.1895 36.1025 26.445 36.0968 26.3882C36.0911 26.3314 36.0286 26.0643 35.4035 26.0586C34.7784 26.0529 34.2386 26.178 34.1761 26.3428C34.1136 26.5076 33.9942 26.8826 33.9147 27.269C33.8067 27.8373 32.6645 29.8659 32.011 30.9286C31.8008 30.5138 31.6189 30.1501 31.5791 29.8603C31.5223 29.4227 31.4541 29.1556 31.5223 28.6328C31.5905 28.11 31.8974 27.3656 31.8917 27.3088C31.886 27.252 31.8235 26.9849 31.1984 26.9792C30.5733 26.9735 30.0335 27.0985 29.971 27.2633C29.9085 27.4281 29.8403 27.8145 29.7096 28.1896C29.5789 28.5646 28.0616 31.9514 27.6639 32.8266C27.4593 33.2755 27.2831 33.6335 27.1581 33.8778C27.1581 33.8778 27.1524 33.8949 27.1354 33.9233C27.0274 34.1336 26.9649 34.2472 26.9649 34.2472C26.9649 34.2472 26.9649 34.2472 26.9649 34.2529C26.8797 34.4063 26.7887 34.5484 26.7433 34.5484C26.7092 34.5484 26.6467 34.1392 26.7546 33.5823C26.9819 32.4061 27.5218 30.5763 27.5161 30.5138C27.5161 30.4797 27.6184 30.1614 27.1638 29.9966C26.7205 29.8319 26.5614 30.1046 26.5217 30.1046C26.4819 30.1046 26.4535 30.2012 26.4535 30.2012C26.4535 30.2012 26.9479 28.1441 25.5102 28.1441C24.6123 28.1441 23.3735 29.1272 22.7598 30.0137C22.3734 30.2239 21.5494 30.6729 20.6686 31.1559C20.3333 31.3434 19.9867 31.5309 19.6628 31.7071C19.6401 31.6844 19.6173 31.656 19.5946 31.6332C17.8557 29.775 14.6394 28.4624 14.7758 25.9677C14.8269 25.0585 15.1395 22.6718 20.9527 19.7737C25.7375 17.4154 29.5448 18.0689 30.204 19.518C31.1473 21.5864 28.1639 25.4279 23.2201 25.9848C21.3335 26.195 20.3447 25.4676 20.0947 25.1949C19.8333 24.9107 19.7935 24.8937 19.6969 24.9505C19.5378 25.0358 19.6401 25.2915 19.6969 25.4392C19.8446 25.8256 20.4527 26.5075 21.4812 26.8428C22.3904 27.1383 24.601 27.3031 27.2774 26.2689C30.2722 25.1096 32.6134 21.8876 31.9258 19.1884C31.2382 16.4494 26.6921 15.5459 22.3904 17.0745C19.8333 17.9837 17.0602 19.4157 15.0656 21.2796C12.696 23.4958 12.3209 25.4222 12.4744 26.2291C13.0256 29.0931 16.975 30.957 18.5547 32.3379C18.4751 32.3833 18.4013 32.4231 18.3388 32.4572C17.5489 32.8493 14.5371 34.4234 13.787 36.0884C12.9346 37.975 13.9234 39.3274 14.5769 39.5093C16.6056 40.0718 18.6911 39.0603 19.8106 37.3897C20.93 35.719 20.7936 33.5482 20.2765 32.5538C20.2708 32.5424 20.2652 32.5311 20.2538 32.5197C20.4584 32.4004 20.6686 32.2754 20.8732 32.156C21.2767 31.9173 21.6744 31.6957 22.0154 31.5139C21.8222 32.0424 21.6801 32.6731 21.6119 33.5823C21.5267 34.6507 21.9642 36.0372 22.5382 36.5827C22.7939 36.8214 23.0951 36.8271 23.2883 36.8271C23.9588 36.8271 24.26 36.2702 24.5953 35.611C25.0044 34.8041 25.3738 33.8665 25.3738 33.8665C25.3738 33.8665 24.9135 36.4009 26.1637 36.4009C26.6183 36.4009 27.0786 35.8099 27.2831 35.5087C27.2831 35.5144 27.2831 35.5144 27.2831 35.5144C27.2831 35.5144 27.2945 35.4974 27.3172 35.4576C27.3627 35.3837 27.3911 35.3383 27.3911 35.3383C27.3911 35.3383 27.3911 35.3326 27.3911 35.3269C27.5729 35.0087 27.9821 34.287 28.5901 33.088C29.3743 31.5423 30.1301 29.6102 30.1301 29.6102C30.1301 29.6102 30.1983 30.0819 30.4313 30.8661C30.5676 31.3264 30.8518 31.8321 31.0791 32.3208C30.8972 32.5765 30.7836 32.7186 30.7836 32.7186C30.7836 32.7186 30.7836 32.7186 30.7893 32.7243C30.6415 32.9175 30.4824 33.1277 30.3062 33.3323C29.6868 34.071 28.9481 34.9177 28.8458 35.1621C28.7265 35.4519 28.7549 35.6622 28.9822 35.8326C29.147 35.9577 29.4425 35.9747 29.7437 35.9577C30.3006 35.9179 30.6927 35.7815 30.8859 35.6963C31.187 35.5883 31.5394 35.4235 31.869 35.1791C32.477 34.7302 32.8464 34.0881 32.8123 33.2414C32.7952 32.7754 32.6418 32.3094 32.4543 31.8719C32.5111 31.7923 32.5622 31.7128 32.6191 31.6332C33.5794 30.2296 34.3238 28.6897 34.3238 28.6897C34.3238 28.6897 34.392 29.1613 34.625 29.9455C34.7386 30.3433 34.9716 30.7752 35.1762 31.1957C34.2727 31.9287 33.7158 32.7811 33.5169 33.338C33.1589 34.3722 33.4373 34.8382 33.9658 34.9462C34.2045 34.9973 34.5454 34.8836 34.7955 34.7757C35.1137 34.6734 35.4887 34.4972 35.8467 34.2358C36.4548 33.7869 37.0401 33.1618 37.006 32.3151C36.9889 31.9287 36.8867 31.548 36.7446 31.1786C37.5117 30.8604 38.5005 30.6842 39.762 30.832C42.4669 31.1502 43.0011 32.8379 42.8988 33.5482C42.7965 34.2586 42.2283 34.645 42.0407 34.7643C41.8532 34.8836 41.7907 34.9234 41.8078 35.0087C41.8305 35.1337 41.9214 35.128 42.0805 35.1053C42.3021 35.0655 43.5012 34.5313 43.5523 33.2243C43.6375 31.5537 42.0464 29.7296 39.2336 29.7466ZM18.3672 36.7816C17.4693 37.759 16.2192 38.1284 15.6793 37.8159C15.0997 37.4806 15.327 36.0372 16.4294 35.003C17.1 34.3722 17.9637 33.7869 18.5377 33.4289C18.6684 33.3494 18.8616 33.2357 19.0945 33.0936C19.1343 33.0709 19.1571 33.0595 19.1571 33.0595C19.2025 33.0311 19.248 33.0027 19.2934 32.9743C19.6969 34.4518 19.3105 35.7531 18.3672 36.7816ZM24.9021 32.3379C24.5896 33.0993 23.9361 35.0484 23.5383 34.9405C23.1974 34.8496 22.9871 33.3721 23.4701 31.9117C23.7145 31.1786 24.2316 30.3035 24.5328 29.9625C25.0215 29.417 25.5613 29.2352 25.692 29.4568C25.8568 29.7466 25.0953 31.8605 24.9021 32.3379ZM30.2949 34.9177C30.1642 34.9859 30.0392 35.0314 29.9823 34.9973C29.9426 34.9746 30.0392 34.8836 30.0392 34.8836C30.0392 34.8836 30.7154 34.1563 30.9825 33.8267C31.1359 33.6335 31.3177 33.4062 31.511 33.1505C31.511 33.1732 31.511 33.2016 31.511 33.2243C31.511 34.0938 30.6699 34.6791 30.2949 34.9177ZM34.4545 33.9688C34.3579 33.9006 34.375 33.6733 34.6989 32.9629C34.8239 32.6845 35.1194 32.2185 35.6251 31.7696C35.682 31.9514 35.7217 32.1276 35.7161 32.2924C35.7104 33.3891 34.9262 33.7983 34.4545 33.9688Z" fill="#CD6799"/>
</svg>