<svg width="58" height="56" viewBox="0 0 58 56" fill="none" xmlns="http://www.w3.org/2000/svg">
<path fill-rule="evenodd" clip-rule="evenodd" d="M19.6922 23.9855L28.9979 41.9959L13.3567 23.9855H19.6922Z" fill="#EA6C00"/>
<path fill-rule="evenodd" clip-rule="evenodd" d="M38.3062 23.9855L29.0005 41.9959L44.6416 23.9855H38.3062Z" fill="#EA6C00"/>
<path fill-rule="evenodd" clip-rule="evenodd" d="M19.6918 23.9855H38.3032L28.9975 41.9959L19.6918 23.9855Z" fill="#FDAD00"/>
<path fill-rule="evenodd" clip-rule="evenodd" d="M28.9975 14.0041L20.1816 14.9256L19.6918 23.9855L28.9975 14.0041Z" fill="#FDD231"/>
<path fill-rule="evenodd" clip-rule="evenodd" d="M28.9975 14.0041L37.8134 14.9256L38.3032 23.9855L28.9975 14.0041Z" fill="#FDD231"/>
<path fill-rule="evenodd" clip-rule="evenodd" d="M44.6416 23.9855L37.8164 14.9256L38.3062 23.9855H44.6416Z" fill="#FDAD00"/>
<path fill-rule="evenodd" clip-rule="evenodd" d="M13.3567 23.9855L20.182 14.9256L19.6922 23.9855H13.3567Z" fill="#FDAD00"/>
<path fill-rule="evenodd" clip-rule="evenodd" d="M28.9975 14.0041L19.6918 23.9855H38.3032L28.9975 14.0041Z" fill="#FEEEB7"/>
</svg>