<svg width="57" height="56" viewBox="0 0 57 56" fill="none" xmlns="http://www.w3.org/2000/svg">
<path d="M39.8326 16.5607C36.9259 12.426 31.1848 11.2004 27.0343 13.8291L19.7453 18.4473C19.2549 18.7537 18.7975 19.11 18.3813 19.5104C17.9646 19.9107 17.5912 20.3532 17.2669 20.8304C16.9426 21.3077 16.669 21.8171 16.4502 22.3505C16.2319 22.884 16.0698 23.4387 15.9666 24.0055C15.8804 24.4807 15.8334 24.9626 15.8272 25.4455C15.8204 25.929 15.8543 26.412 15.928 26.8892C16.0016 27.367 16.1149 27.838 16.2663 28.297C16.4178 28.7561 16.6073 29.2017 16.8329 29.6296C16.6777 29.8641 16.5345 30.1062 16.4037 30.3551C16.2726 30.6038 16.1546 30.8593 16.0496 31.12C15.9447 31.3807 15.8533 31.6466 15.7755 31.9166C15.6977 32.1867 15.6339 32.4603 15.5838 32.7366C15.3755 33.8984 15.403 35.0898 15.6648 36.2409C15.7953 36.8147 15.9828 37.3745 16.2251 37.9115C16.4674 38.4485 16.7624 38.9605 17.1071 39.4393C20.0137 43.574 25.7543 44.7996 29.9049 42.1709L37.1938 37.5719C37.6842 37.265 38.1406 36.9082 38.5568 36.5073C38.9729 36.1067 39.3462 35.6643 39.6707 35.1872C39.995 34.7105 40.2686 34.201 40.4874 33.6677C40.7062 33.1349 40.8686 32.5803 40.9725 32.0137C41.0587 31.5386 41.1052 31.0572 41.1114 30.5742C41.1177 30.0912 41.0838 29.6083 41.0096 29.131C40.936 28.6538 40.8227 28.1833 40.6707 27.7242C40.5187 27.2657 40.3292 26.8201 40.1036 26.3922C40.2587 26.158 40.4023 25.9155 40.5334 25.6667C40.6639 25.418 40.7824 25.1625 40.8874 24.9018C40.9924 24.6411 41.0843 24.3752 41.1626 24.1052C41.2404 23.8357 41.3052 23.562 41.3558 23.2857C41.4592 22.7062 41.5041 22.1178 41.4906 21.5294C41.477 20.9411 41.4044 20.3558 41.2738 19.7814C41.1433 19.2076 40.9558 18.6478 40.7135 18.1108C40.4715 17.5738 40.1764 17.062 39.8326 16.583" fill="#FF3E00"/>
<path d="M26.322 39.8392C25.7515 39.9865 25.1617 40.0464 24.5731 40.0168C23.9846 39.9866 23.4039 39.8682 22.8514 39.6642C22.2989 39.4604 21.7808 39.1741 21.315 38.8151C20.8497 38.4559 20.442 38.0282 20.1061 37.5469C19.8988 37.2587 19.7213 36.9513 19.5761 36.6283C19.4305 36.3055 19.3177 35.969 19.2393 35.6239C19.1615 35.2786 19.1176 34.9265 19.1098 34.5729C19.1019 34.2192 19.1296 33.8656 19.1923 33.5171C19.2022 33.4605 19.2137 33.4039 19.2262 33.3478C19.2382 33.2912 19.2518 33.2351 19.2664 33.1796C19.2805 33.1235 19.2962 33.0679 19.3129 33.0123C19.3291 32.9573 19.3468 32.9023 19.3651 32.8477L19.5025 32.4307L19.8769 32.7086C20.0915 32.8643 20.3129 33.0113 20.5401 33.1484C20.7672 33.286 21.0001 33.4138 21.2383 33.5311C21.4759 33.649 21.7192 33.757 21.9662 33.8541C22.2132 33.9518 22.4644 34.0385 22.7193 34.1148L22.9986 34.1953L22.9736 34.4732C22.9601 34.6622 22.9799 34.8522 23.0321 35.0345C23.0576 35.1259 23.0916 35.2142 23.1328 35.2994C23.1741 35.3845 23.2227 35.4661 23.278 35.5429C23.3794 35.6879 23.5025 35.8166 23.643 35.9246C23.783 36.0326 23.9391 36.1188 24.1057 36.1801C24.2723 36.2414 24.4467 36.2767 24.6243 36.2855C24.8013 36.2949 24.9788 36.2767 25.1507 36.2321C25.1903 36.2217 25.229 36.2097 25.2676 36.1962C25.3063 36.1827 25.3444 36.1682 25.3815 36.1516C25.4191 36.1355 25.4556 36.1178 25.4922 36.0986C25.5282 36.0799 25.5632 36.0596 25.5977 36.0378L32.8757 31.4191C32.9649 31.3635 33.048 31.2987 33.1237 31.2259C33.1994 31.1527 33.2668 31.0722 33.3258 30.9855C33.3848 30.8988 33.4339 30.8058 33.4736 30.7087C33.5128 30.6116 33.542 30.5108 33.5608 30.408C33.5791 30.3026 33.5869 30.1961 33.5843 30.0892C33.5817 29.9827 33.5681 29.8768 33.5441 29.7724C33.5206 29.6685 33.4861 29.5673 33.4417 29.4696C33.3979 29.3725 33.3436 29.2801 33.2809 29.1934C33.1796 29.0485 33.0569 28.9202 32.9164 28.8122C32.7759 28.7042 32.6198 28.618 32.4537 28.5567C32.2873 28.4954 32.1124 28.4597 31.9352 28.4508C31.7576 28.4419 31.5801 28.4601 31.4083 28.5042C31.3691 28.5146 31.3299 28.5266 31.2913 28.5401C31.2527 28.5536 31.2151 28.5681 31.1775 28.5842C31.1399 28.6008 31.1033 28.6185 31.0673 28.6377C31.0312 28.6564 30.9957 28.6772 30.9613 28.699L28.1664 30.4636C28.0526 30.5353 27.9356 30.6028 27.8165 30.6661C27.6969 30.729 27.5758 30.7876 27.452 30.8416C27.3283 30.8957 27.2024 30.945 27.075 30.9891C26.9476 31.0338 26.8186 31.0733 26.688 31.108C26.1183 31.2545 25.5298 31.3137 24.9423 31.2836C24.3548 31.2535 23.7757 31.1345 23.2242 30.9315C22.6728 30.7279 22.1558 30.4418 21.691 30.0835C21.2263 29.7251 20.8189 29.2988 20.4832 28.8184C20.2769 28.5302 20.0999 28.2223 19.9552 27.8992C19.81 27.5762 19.6978 27.2397 19.62 26.8949C19.5421 26.5496 19.4993 26.1975 19.492 25.8438C19.4842 25.4907 19.5119 25.1371 19.575 24.7891C19.6985 24.1041 19.9642 23.4522 20.3552 22.8749C20.7465 22.2977 21.2547 21.8082 21.8472 21.4375L29.1476 16.8193C29.261 16.7476 29.3769 16.6801 29.4954 16.6168C29.614 16.5539 29.7351 16.4953 29.8578 16.4413C29.9808 16.3872 30.1059 16.338 30.2328 16.2938C30.3592 16.2491 30.4876 16.2091 30.6176 16.1743C31.1879 16.0274 31.7775 15.9671 32.3655 15.9967C32.954 16.0268 33.5342 16.1452 34.0867 16.3493C34.6392 16.5529 35.1567 16.8396 35.6225 17.1984C36.0877 17.5578 36.4952 17.9856 36.8309 18.4671C37.0377 18.7548 37.2157 19.0622 37.3614 19.3852C37.5071 19.7082 37.6199 20.0442 37.6988 20.3895C37.7771 20.7349 37.821 21.087 37.8288 21.4406C37.8372 21.7943 37.81 22.1479 37.7473 22.4964C37.7364 22.5535 37.7249 22.6106 37.7118 22.6672C37.6993 22.7238 37.6857 22.7804 37.6711 22.8365C37.657 22.8931 37.6413 22.9492 37.6251 23.0048C37.609 23.0609 37.5923 23.1164 37.574 23.1715L37.4345 23.5885L37.0627 23.3106C36.8476 23.1533 36.6256 23.0058 36.398 22.8672C36.1703 22.729 35.9363 22.6002 35.6977 22.4813C35.2199 22.2443 34.7229 22.0477 34.212 21.8935L33.9321 21.813L33.9577 21.5351C33.9655 21.4401 33.965 21.3446 33.9561 21.25C33.9478 21.1555 33.9305 21.0615 33.9055 20.9696C33.8799 20.8782 33.847 20.7884 33.8057 20.7027C33.765 20.6165 33.7164 20.5344 33.6611 20.4565C33.5592 20.3142 33.4361 20.1881 33.296 20.0826C33.1562 19.9767 33.0009 19.8926 32.8355 19.8334C32.5031 19.7134 32.1418 19.6973 31.7999 19.7871C31.7602 19.7975 31.7211 19.8095 31.683 19.8225C31.6443 19.836 31.6062 19.851 31.5686 19.8671C31.5315 19.8832 31.4944 19.9014 31.4584 19.9201C31.4224 19.9393 31.3869 19.9596 31.3524 19.9814L24.0608 24.5918C23.972 24.6473 23.889 24.7123 23.8138 24.785C23.7386 24.8577 23.6707 24.9382 23.6117 25.0244C23.5532 25.1111 23.5037 25.2035 23.4639 25.3001C23.4242 25.3972 23.395 25.4975 23.3762 25.6003C23.3579 25.7057 23.3501 25.8127 23.3527 25.9196C23.359 26.1338 23.4074 26.3446 23.4953 26.5402C23.5396 26.6376 23.5932 26.7305 23.6556 26.8175C23.7564 26.9609 23.8786 27.0886 24.018 27.1956C24.1571 27.3031 24.3119 27.3889 24.477 27.45C24.809 27.5728 25.1706 27.5925 25.5141 27.5067C25.5533 27.4957 25.5924 27.4838 25.6311 27.4703C25.6692 27.4568 25.7073 27.4417 25.7449 27.4256C25.7824 27.4095 25.8191 27.3918 25.8551 27.3727C25.8911 27.354 25.9267 27.3337 25.9611 27.3119L28.756 25.5504C28.8703 25.4777 28.9868 25.4092 29.1064 25.3458C29.2254 25.2819 29.3471 25.2233 29.4714 25.1687C29.5953 25.1147 29.7212 25.0655 29.849 25.0212C29.9769 24.9766 30.1064 24.9371 30.2375 24.9028C30.8077 24.7554 31.3968 24.6951 31.9853 24.7242C32.5738 24.7538 33.154 24.8722 33.7065 25.0758C34.2585 25.2793 34.7765 25.5655 35.2418 25.9248C35.7076 26.2837 36.1149 26.7111 36.4507 27.1925C36.6575 27.4807 36.835 27.7881 36.9807 28.1111C37.1264 28.4339 37.2394 28.7704 37.3181 29.1155C37.3964 29.4603 37.4403 29.8124 37.4486 30.166C37.457 30.5202 37.4293 30.8738 37.3672 31.2218C37.3056 31.5634 37.2085 31.8977 37.0774 32.2194C36.9463 32.5411 36.7818 32.8483 36.5865 33.1359C36.3917 33.4236 36.1671 33.6906 35.9165 33.932C35.6658 34.1735 35.3906 34.3885 35.0951 34.5734L27.8029 39.1916C27.6886 39.2638 27.5716 39.3318 27.4525 39.3952C27.333 39.4585 27.2113 39.5172 27.087 39.5712C26.9632 39.6257 26.8374 39.6751 26.7094 39.7197C26.582 39.7644 26.4525 39.8044 26.322 39.8392Z" fill="white"/>
</svg>