<svg width="56" height="56" viewBox="0 0 56 56" fill="none" xmlns="http://www.w3.org/2000/svg">
<path d="M28 12.4445L14.2515 20.2222V35.7778L28 43.5556L41.7485 35.7778V20.2222L28 12.4445Z" fill="white"/>
<path d="M16.7066 35.2411L27.5463 41.3726V36.597L20.7926 32.8819L16.7066 35.2411ZM15.9652 34.5696V21.7467L19.9318 24.0359V32.2778L15.9652 34.5696ZM39.3374 35.2411L28.4977 41.3726V36.597L35.2515 32.8819L39.3374 35.2411ZM40.0789 34.5696V21.7467L36.1122 24.0359V32.2778L40.0789 34.5696ZM39.6148 20.917L28.4977 14.6274V19.2448L35.6196 23.1622L35.674 23.1933L39.6148 20.917ZM16.4292 20.917L27.5463 14.6274V19.2448L20.4244 23.1622L20.37 23.1933L16.4292 20.917Z" fill="#8ED6FB"/>
<path d="M28.4978 35.5108L35.1608 31.8474V24.5882L28.4978 28.4356V35.5108ZM27.5463 35.5108L20.8834 31.8474V24.5882L27.5463 28.4356V35.5108ZM34.7097 23.7482L28.0208 20.0693L21.3319 23.7482L28.0208 27.6111L34.7097 23.7482Z" fill="#1C78C0"/>
</svg>